<svg xmlns="http://www.w3.org/2000/svg" width="59" height="39.39" viewBox="0 0 59 39.39"><title>logo</title><g id="Layer_2" data-name="Layer 2"><g id="Layer_1-2" data-name="Layer 1"><path d="M34.29,25.84C34.25.63,22.13,5.32,5.2,2.1c-5-1-6.57-6.41-4,5.28C7.13,33.9,28.1,29.84,33.16,28.32a35.43,35.43,0,0,0-1.9-4.24c-4.56,2.37-9.1,2.78-15.15.61,4.11.49,8.08,1.53,14.46-1.81a19.84,19.84,0,0,0-5.35-6c-3.58,1.79-7.12,2-11.8.29,3.08.42,6.06,1.23,10.78-1A38,38,0,0,0,17.68,13c-1.16-.46-3.25-1.1-5.54-2.21A8,8,0,0,1,5.45,9.73c1.64.53,3.19,1.25,5.85.64A17.39,17.39,0,0,1,4,3.53c4.73,5.72,9.91,6.36,14.24,8.11,1.52.62,3,1.21,4.38,1.86-1-3.68-2.91-5.14-4.64-6.83,3.34,2.05,5,4.34,5.67,7.34a20.5,20.5,0,0,1,7,5.54c.49-4.68-1.06-7.17-2.31-9.85,3,3.86,3.81,7.24,3.23,11.07a28.07,28.07,0,0,1,2.75,5.07Z" fill="#22b573"/><path d="M34.85,26.92c0-17.76,8.57-14.46,20.49-16.73,3.49-.66,4.62-4.51,2.79,3.72C54,32.59,39.21,29.73,35.64,28.67a24.35,24.35,0,0,1,1.34-3c3.22,1.68,6.41,2,10.67.43-2.89.35-5.69,1.08-10.19-1.27a14.05,14.05,0,0,1,3.78-4.2,9.58,9.58,0,0,0,8.31.2c-2.18.3-4.27.87-7.6-.69a26.23,26.23,0,0,1,4.6-2.26c.81-.33,2.29-.77,3.9-1.56a5.58,5.58,0,0,0,4.71-.75A6.65,6.65,0,0,1,51,16,12.39,12.39,0,0,0,56.2,11.2c-3.33,4-7,4.48-10,5.72-1.07.43-2.09.84-3.08,1.31a9.36,9.36,0,0,1,3.27-4.81,7.86,7.86,0,0,0-4,5.16,14.65,14.65,0,0,0-4.93,3.9c-.34-3.29.75-5.05,1.63-6.94a9.64,9.64,0,0,0-2.28,7.81,20.36,20.36,0,0,0-1.93,3.57Z" fill="#22b573"/><path d="M34,39.39c2.6-.62,3-1.6,4.16-2.54-.85-4-2.16-4.81-3-7.9.08-.28.15-.56.23-.84l-.46-.83-.28.08c-.18-.49-.37-1-.55-1.46l-.8,1.38c.66,4.67,1,5.65,1,8.55,0,1-.19,2-.31,3.56Z" fill="#22b573"/></g></g></svg>